#Comment line ignore any data following # character 
#Hierarchical Translation and Rotation (.htr) file 
[Header]	
#Header keywords are followed by a single value 
FileType HTR		#Single word string
DataType HTRS		#Translation followed by rotation and scale data
FileVersion 1		#integer
NumSegments 84		#integer
NumFrames 2		#integer
DataFrameRate 30		#integer, data frame rate in this file
EulerRotationOrder ZYX
CalibrationUnits mm
RotationUnits Degrees
GlobalAxisofGravity Y
BoneLengthAxis Y
ScaleFactor 1.00
[SegmentNames&Hierarchy]
#CHILD	PARENT
MASTER GLOBAL
root MASTER
chest root
L_mid_tent01 root
R_mid_tent01 root
spine01 root
Bip01_Neck chest
L_humerus chest
R_humerus chest
weapon_bone chest
Bip01_Head Bip01_Neck
eye_left_bone Bip01_Head
eye_right_bone Bip01_Head
L_forearm L_humerus
L_front_hand L_forearm
L_weapon_bone L_forearm
L_front_hand01_01 L_front_hand
L_front_hand02_01 L_front_hand
L_front_hand03_01 L_front_hand
L_front_hand01_02 L_front_hand01_01
L_front_hand02_02 L_front_hand02_01
L_front_hand03_02 L_front_hand03_01
R_forearm R_humerus
R_front_hand R_forearm
R_weapon_bone R_forearm
R_front_hand01_01 R_front_hand
R_front_hand02_01 R_front_hand
R_front_hand03_01 R_front_hand
R_front_hand01_02 R_front_hand01_01
R_front_hand02_02 R_front_hand02_01
R_front_hand03_02 R_front_hand03_01
null_rope01_connect L_mid_tent01
Rope1_Seg01 null_rope01_connect
Rope1_Seg02 Rope1_Seg01
Rope1_Seg03 Rope1_Seg02
Rope1_Seg04 Rope1_Seg03
Rope1_Seg05 Rope1_Seg04
Rope1_Seg06 Rope1_Seg05
Rope1_Seg07 Rope1_Seg06
Rope1_Seg09 Rope1_Seg07
L_mid_hand01 Rope1_Seg09
L_mid_hand02 Rope1_Seg09
L_mid_hand03 Rope1_Seg09
null_rope02_connect R_mid_tent01
Rope2_Seg01 null_rope02_connect
Rope2_Seg02 Rope2_Seg01
Rope2_Seg03 Rope2_Seg02
Rope2_Seg04 Rope2_Seg03
Rope2_Seg05 Rope2_Seg04
Rope2_Seg06 Rope2_Seg05
Rope2_Seg07 Rope2_Seg06
Rope2_Seg09 Rope2_Seg07
R_mid_hand01 Rope2_Seg09
R_mid_hand02 Rope2_Seg09
R_mid_hand03 Rope2_Seg09
spine02 spine01
spine03 spine02
pelvis spine03
null_rope03_connect pelvis
null_rope04_connect pelvis
Rope3_Seg01 null_rope03_connect
Rope3_Seg02 Rope3_Seg01
Rope3_Seg03 Rope3_Seg02
Rope3_Seg04 Rope3_Seg03
Rope3_Seg05 Rope3_Seg04
Rope3_Seg06 Rope3_Seg05
Rope3_Seg07 Rope3_Seg06
Rope3_Seg08 Rope3_Seg07
Rope3_Seg09 Rope3_Seg08
R_rear_hand01 Rope3_Seg09
R_rear_hand02 Rope3_Seg09
R_rear_hand03 Rope3_Seg09
Rope4_Seg01 null_rope04_connect
Rope4_Seg02 Rope4_Seg01
Rope4_Seg03 Rope4_Seg02
Rope4_Seg04 Rope4_Seg03
Rope4_Seg05 Rope4_Seg04
Rope4_Seg06 Rope4_Seg05
Rope4_Seg07 Rope4_Seg06
Rope4_Seg08 Rope4_Seg07
Rope4_Seg09 Rope4_Seg08
L_rear_hand01 Rope4_Seg09
L_rear_hand02 Rope4_Seg09
L_rear_hand03 Rope4_Seg09
[BasePosition]
#SegmentName Tx, Ty, Tz, Rx, Ry, Rz, BoneLength
MASTER 0.000000 0.000000 0.000000 -90.000000 0.000000 0.000000 10.000000 
root 0.000000 0.000000 0.000000 0.000000 0.000000 0.000000 10.000000 
chest 0.000000 0.000000 0.000000 0.000000 0.000000 0.000000 10.000000 
L_mid_tent01 0.000000 0.000000 0.000000 0.000000 0.000000 0.000000 10.000000 
R_mid_tent01 0.000000 0.000000 0.000000 0.000000 0.000000 0.000000 10.000000 
spine01 0.000000 0.000000 0.000000 0.000000 0.000000 0.000000 10.000000 
Bip01_Neck 0.000000 0.000000 0.000000 0.000000 0.000000 0.000000 10.000000 
L_humerus 0.000000 0.000000 0.000000 0.000000 0.000000 0.000000 10.000000 
R_humerus 0.000000 0.000000 0.000000 0.000000 0.000000 0.000000 10.000000 
weapon_bone 0.000000 0.000000 0.000000 0.000000 0.000000 0.000000 10.000000 
Bip01_Head 0.000000 0.000000 0.000000 0.000000 0.000000 0.000000 10.000000 
eye_left_bone 0.000000 0.000000 0.000000 0.000000 0.000000 0.000000 10.000000 
eye_right_bone 0.000000 0.000000 0.000000 0.000000 0.000000 0.000000 10.000000 
L_forearm 0.000000 0.000000 0.000000 0.000000 0.000000 0.000000 10.000000 
L_front_hand 0.000000 0.000000 0.000000 0.000000 0.000000 0.000000 10.000000 
L_weapon_bone 0.000000 0.000000 0.000000 0.000000 0.000000 0.000000 10.000000 
L_front_hand01_01 0.000000 0.000000 0.000000 0.000000 0.000000 0.000000 10.000000 
L_front_hand02_01 0.000000 0.000000 0.000000 0.000000 0.000000 0.000000 10.000000 
L_front_hand03_01 0.000000 0.000000 0.000000 0.000000 0.000000 0.000000 10.000000 
L_front_hand01_02 0.000000 0.000000 0.000000 0.000000 0.000000 0.000000 10.000000 
L_front_hand02_02 0.000000 0.000000 0.000000 0.000000 0.000000 0.000000 10.000000 
L_front_hand03_02 0.000000 0.000000 0.000000 0.000000 0.000000 0.000000 10.000000 
R_forearm 0.000000 0.000000 0.000000 0.000000 0.000000 0.000000 10.000000 
R_front_hand 0.000000 0.000000 0.000000 0.000000 0.000000 0.000000 10.000000 
R_weapon_bone 0.000000 0.000000 0.000000 0.000000 0.000000 0.000000 10.000000 
R_front_hand01_01 0.000000 0.000000 0.000000 0.000000 0.000000 0.000000 10.000000 
R_front_hand02_01 0.000000 0.000000 0.000000 0.000000 0.000000 0.000000 10.000000 
R_front_hand03_01 0.000000 0.000000 0.000000 0.000000 0.000000 0.000000 10.000000 
R_front_hand01_02 0.000000 0.000000 0.000000 0.000000 0.000000 0.000000 10.000000 
R_front_hand02_02 0.000000 0.000000 0.000000 0.000000 0.000000 0.000000 10.000000 
R_front_hand03_02 0.000000 0.000000 0.000000 0.000000 0.000000 0.000000 10.000000 
null_rope01_connect 0.000000 0.000000 0.000000 0.000000 0.000000 0.000000 10.000000 
Rope1_Seg01 0.000000 0.000000 0.000000 0.000000 0.000000 0.000000 10.000000 
Rope1_Seg02 0.000000 0.000000 0.000000 0.000000 0.000000 0.000000 10.000000 
Rope1_Seg03 0.000000 0.000000 0.000000 0.000000 0.000000 0.000000 10.000000 
Rope1_Seg04 0.000000 0.000000 0.000000 0.000000 0.000000 0.000000 10.000000 
Rope1_Seg05 0.000000 0.000000 0.000000 0.000000 0.000000 0.000000 10.000000 
Rope1_Seg06 0.000000 0.000000 0.000000 0.000000 0.000000 0.000000 10.000000 
Rope1_Seg07 0.000000 0.000000 0.000000 0.000000 0.000000 0.000000 10.000000 
Rope1_Seg09 0.000000 0.000000 0.000000 0.000000 0.000000 0.000000 10.000000 
L_mid_hand01 0.000000 0.000000 0.000000 0.000000 0.000000 0.000000 10.000000 
L_mid_hand02 0.000000 0.000000 0.000000 0.000000 0.000000 0.000000 10.000000 
L_mid_hand03 0.000000 0.000000 0.000000 0.000000 0.000000 0.000000 10.000000 
null_rope02_connect 0.000000 0.000000 0.000000 0.000000 0.000000 0.000000 10.000000 
Rope2_Seg01 0.000000 0.000000 0.000000 0.000000 0.000000 0.000000 10.000000 
Rope2_Seg02 0.000000 0.000000 0.000000 0.000000 0.000000 0.000000 10.000000 
Rope2_Seg03 0.000000 0.000000 0.000000 0.000000 0.000000 0.000000 10.000000 
Rope2_Seg04 0.000000 0.000000 0.000000 0.000000 0.000000 0.000000 10.000000 
Rope2_Seg05 0.000000 0.000000 0.000000 0.000000 0.000000 0.000000 10.000000 
Rope2_Seg06 0.000000 0.000000 0.000000 0.000000 0.000000 0.000000 10.000000 
Rope2_Seg07 0.000000 0.000000 0.000000 0.000000 0.000000 0.000000 10.000000 
Rope2_Seg09 0.000000 0.000000 0.000000 0.000000 0.000000 0.000000 10.000000 
R_mid_hand01 0.000000 0.000000 0.000000 0.000000 0.000000 0.000000 10.000000 
R_mid_hand02 0.000000 0.000000 0.000000 0.000000 0.000000 0.000000 10.000000 
R_mid_hand03 0.000000 0.000000 0.000000 0.000000 0.000000 0.000000 10.000000 
spine02 0.000000 0.000000 0.000000 0.000000 0.000000 0.000000 10.000000 
spine03 0.000000 0.000000 0.000000 0.000000 0.000000 0.000000 10.000000 
pelvis 0.000000 0.000000 0.000000 0.000000 0.000000 0.000000 10.000000 
null_rope03_connect 0.000000 0.000000 0.000000 0.000000 0.000000 0.000000 10.000000 
null_rope04_connect 0.000000 0.000000 0.000000 0.000000 0.000000 0.000000 10.000000 
Rope3_Seg01 0.000000 0.000000 0.000000 0.000000 0.000000 0.000000 10.000000 
Rope3_Seg02 0.000000 0.000000 0.000000 0.000000 0.000000 0.000000 10.000000 
Rope3_Seg03 0.000000 0.000000 0.000000 0.000000 0.000000 0.000000 10.000000 
Rope3_Seg04 0.000000 0.000000 0.000000 0.000000 0.000000 0.000000 10.000000 
Rope3_Seg05 0.000000 0.000000 0.000000 0.000000 0.000000 0.000000 10.000000 
Rope3_Seg06 0.000000 0.000000 0.000000 0.000000 0.000000 0.000000 10.000000 
Rope3_Seg07 0.000000 0.000000 0.000000 0.000000 0.000000 0.000000 10.000000 
Rope3_Seg08 0.000000 0.000000 0.000000 0.000000 0.000000 0.000000 10.000000 
Rope3_Seg09 0.000000 0.000000 0.000000 0.000000 0.000000 0.000000 10.000000 
R_rear_hand01 0.000000 0.000000 0.000000 0.000000 0.000000 0.000000 10.000000 
R_rear_hand02 0.000000 0.000000 0.000000 0.000000 0.000000 0.000000 10.000000 
R_rear_hand03 0.000000 0.000000 0.000000 0.000000 0.000000 0.000000 10.000000 
Rope4_Seg01 0.000000 0.000000 0.000000 0.000000 0.000000 0.000000 10.000000 
Rope4_Seg02 0.000000 0.000000 0.000000 0.000000 0.000000 0.000000 10.000000 
Rope4_Seg03 0.000000 0.000000 0.000000 0.000000 0.000000 0.000000 10.000000 
Rope4_Seg04 0.000000 0.000000 0.000000 0.000000 0.000000 0.000000 10.000000 
Rope4_Seg05 0.000000 0.000000 0.000000 0.000000 0.000000 0.000000 10.000000 
Rope4_Seg06 0.000000 0.000000 0.000000 0.000000 0.000000 0.000000 10.000000 
Rope4_Seg07 0.000000 0.000000 0.000000 0.000000 0.000000 0.000000 10.000000 
Rope4_Seg08 0.000000 0.000000 0.000000 0.000000 0.000000 0.000000 10.000000 
Rope4_Seg09 0.000000 0.000000 0.000000 0.000000 0.000000 0.000000 10.000000 
L_rear_hand01 0.000000 0.000000 0.000000 0.000000 0.000000 0.000000 10.000000 
L_rear_hand02 0.000000 0.000000 0.000000 0.000000 0.000000 0.000000 10.000000 
L_rear_hand03 0.000000 0.000000 0.000000 0.000000 0.000000 0.000000 10.000000 
#Beginning of Data. Separated by tabs
#Fr	Tx	Ty	Tz	Rx	Ry	Rz	SF
[MASTER]
30 -0.000858 5701.725586 1700.945313 0.001660 0.001660 0.001660 5950.032715
31 -0.000873 5797.208984 1708.504883 0.001660 0.001660 0.001660 6043.725098
[root]
30 -288.307678 -115.025299 890.166687 -78.217972 -14.104836 -90.552979 942.734802
31 -296.730713 -85.671913 1004.092834 -76.856346 -16.180058 -90.504280 1050.519531
[chest]
30 -84.512650 -34.090519 0.000000 2.326197 0.108215 149.316727 91.129311
31 -84.512650 -34.090519 0.000000 6.459379 0.518884 146.997116 91.129311
[L_mid_tent01]
30 27.299152 22.179422 -249.918701 -6.386844 33.595814 56.079620 252.381714
31 27.299154 22.179434 -249.918701 -8.226502 32.359432 52.238434 252.381714
[R_mid_tent01]
30 23.228794 24.509907 226.238495 166.069778 -27.145378 76.520691 228.744751
31 23.228794 24.509907 226.238495 168.009109 -27.381517 73.291168 228.744751
[spine01]
30 -0.361383 -0.195265 0.000000 0.001951 0.001305 22.464342 0.410763
31 -0.361383 -0.195265 0.000000 0.001951 0.001305 22.418123 0.410763
[Bip01_Neck]
30 165.484543 71.581718 0.000119 176.643677 -1.657967 43.431911 180.302734
31 165.484543 71.581718 0.000119 176.643677 -1.657967 43.431911 180.302734
[L_humerus]
30 -13.983130 -135.272980 -120.471481 169.322693 38.502087 -96.603127 181.680161
31 -13.983130 -135.272980 -120.471481 167.965378 44.939194 -98.513428 181.680161
[R_humerus]
30 -13.983309 -135.273102 125.287651 -174.870834 -45.019623 -89.547150 184.909012
31 -13.983309 -135.273102 125.287651 -174.206619 -49.019203 -90.360313 184.909012
[weapon_bone]
30 235.964890 -300.705902 0.000000 0.000000 -89.951546 -128.212341 382.234833
31 235.964890 -300.705902 0.000000 0.000000 -89.951546 -128.212341 382.234833
[Bip01_Head]
30 213.392334 185.859177 9.923101 5.200444 6.151310 -43.834988 283.157898
31 213.407593 185.817154 10.464963 5.200446 6.151311 -43.834991 283.161316
[eye_left_bone]
30 -24.626970 125.451866 -64.772606 0.000000 -90.000000 -99.840431 143.318359
31 -24.626970 125.451866 -64.772606 0.000000 -90.000000 -99.840431 143.318359
[eye_right_bone]
30 -24.626970 125.451866 64.327362 0.000000 -89.965736 80.156380 143.117676
31 -24.626970 125.451866 64.327362 0.000000 -89.965736 80.156380 143.117676
[L_forearm]
30 322.776093 0.000000 -0.000119 0.000277 -0.002331 -103.545471 322.776093
31 322.776093 0.000000 -0.000119 0.000287 -0.002330 -104.034119 322.776093
[L_front_hand]
30 241.149185 -0.042021 -3.300071 -76.967514 -1.833501 -27.423065 241.171753
31 241.149185 -0.042021 -3.300071 -44.174480 -1.837150 -27.420938 241.171753
[L_weapon_bone]
30 156.183838 0.000000 0.000000 0.000014 0.000007 0.000001 156.183838
31 156.183838 0.000000 0.000000 0.000014 0.000007 0.000001 156.183838
[L_front_hand01_01]
30 86.095154 20.947098 -0.655860 -0.173495 -0.576507 54.642807 88.609184
31 86.095154 20.947098 -0.655860 0.025805 -0.601454 35.382427 88.609184
[L_front_hand02_01]
30 86.935165 -11.437475 24.513514 131.628983 -47.073074 -33.402580 91.046425
31 86.935165 -11.437475 24.513514 122.070236 -31.555197 -18.501266 91.046425
[L_front_hand03_01]
30 86.637497 -14.123976 -20.424902 -132.490906 45.389427 -35.777111 90.126129
31 86.637497 -14.123976 -20.424902 -123.243500 30.081266 -20.855795 90.126129
[L_front_hand01_02]
30 71.020905 -0.000179 0.000030 -0.000000 -0.000000 -57.379704 71.020905
31 71.020905 -0.000179 0.000030 0.000022 -0.002347 -91.065414 71.020905
[L_front_hand02_02]
30 71.020927 -0.000119 0.000060 -0.000000 -0.000000 -57.379704 71.020927
31 71.020927 -0.000119 0.000060 0.000022 -0.002347 -91.065414 71.020927
[L_front_hand03_02]
30 71.020905 -0.000060 0.000060 -0.000000 -0.000000 -57.379704 71.020905
31 71.020905 -0.000060 0.000060 0.000022 -0.002347 -91.065414 71.020905
[R_forearm]
30 322.776428 -0.000060 0.000030 0.207206 0.041362 -102.138786 322.776428
31 322.776428 -0.000060 0.000030 0.207548 0.042895 -102.630249 322.776428
[R_front_hand]
30 238.847015 -0.006795 2.210259 -101.207970 -10.645844 -26.314411 238.857239
31 238.847015 -0.006795 2.210259 -145.695770 -10.644155 -26.314875 238.857239
[R_weapon_bone]
30 155.664093 0.002503 -0.000030 0.003487 0.001180 -90.988930 155.664078
31 155.664093 0.002503 -0.000030 0.003487 0.001180 -90.988930 155.664078
[R_front_hand01_01]
30 87.624611 14.231146 22.918642 -122.124245 -31.678274 18.703571 91.683487
31 87.624611 14.231146 22.918642 -118.590866 -18.979033 10.506082 91.683487
[R_front_hand02_01]
30 89.356956 14.367283 -19.491137 123.409760 30.459372 21.398478 92.579636
31 89.356956 14.367283 -19.491137 119.923141 17.935072 12.959636 92.579636
[R_front_hand03_01]
30 87.286232 -22.307278 -0.143439 -0.150515 -0.429315 -35.768787 90.091743
31 87.286232 -22.307278 -0.143439 -0.255008 -0.377779 -21.080965 90.091743
[R_front_hand01_02]
30 71.020905 0.000060 0.000119 0.001777 0.001534 8.377221 71.020905
31 71.020905 0.000060 0.000119 0.001777 0.001534 8.377220 71.020905
[R_front_hand02_02]
30 71.020844 -0.000030 -0.000119 0.001777 0.001534 8.377221 71.020836
31 71.020844 -0.000030 -0.000119 0.001777 0.001534 8.377220 71.020836
[R_front_hand03_02]
30 71.020905 0.000000 0.000030 0.001777 0.001534 8.377221 71.020905
31 71.020905 0.000000 0.000030 0.001777 0.001534 8.377220 71.020905
[null_rope01_connect]
30 328.732483 0.000000 -0.000238 -132.670410 -65.971436 177.339737 328.732483
31 328.732483 0.000000 -0.000238 -128.167236 -67.927002 178.176666 328.732483
[Rope1_Seg01]
30 0.000038 -0.000433 0.000047 114.506142 11.956926 151.393677 0.000437
31 0.000038 -0.000447 0.000044 115.976822 21.755669 151.948105 0.000451
[Rope1_Seg02]
30 139.999863 -0.000179 0.000000 0.879304 -1.264114 -6.788182 139.999863
31 139.999863 -0.000179 0.000000 0.994100 -0.521874 -5.866343 139.999863
[Rope1_Seg03]
30 139.999924 0.000060 -0.000060 3.017540 -2.590444 -12.880582 139.999924
31 139.999924 0.000060 -0.000060 2.733447 -1.121130 -10.592702 139.999924
[Rope1_Seg04]
30 139.999924 -0.000060 -0.000119 13.887524 -8.500802 -27.246370 139.999924
31 139.999924 -0.000060 -0.000119 12.847650 -4.278190 -25.143612 139.999924
[Rope1_Seg05]
30 139.999832 0.000119 -0.000060 28.389206 -10.678507 -33.948528 139.999832
31 139.999832 0.000119 -0.000060 32.197880 -10.787906 -32.803066 139.999832
[Rope1_Seg06]
30 139.999954 0.000119 -0.000060 16.135086 -9.749696 -13.648369 139.999954
31 139.999954 0.000119 -0.000060 11.787256 -7.076867 -8.811190 139.999954
[Rope1_Seg07]
30 139.999985 0.000060 0.000000 7.000453 -6.363635 -4.378669 139.999985
31 139.999985 0.000060 0.000000 7.328950 -6.020467 -4.201231 139.999985
[Rope1_Seg09]
30 121.602913 0.000119 -0.000089 -89.793175 -1.359789 0.847147 121.602913
31 121.602913 0.000119 -0.000089 -89.793175 -1.359789 0.847147 121.602913
[L_mid_hand01]
30 103.859421 1.038730 8.195221 130.544342 -67.584518 -38.866932 104.187431
31 103.859421 1.038730 8.195221 130.544373 -67.584534 -38.866943 104.187431
[L_mid_hand02]
30 105.572853 -4.139662 -10.864139 -168.923172 43.409309 -73.498886 106.211075
31 105.572853 -4.139662 -10.864139 -168.923172 43.409321 -73.498909 106.211075
[L_mid_hand03]
30 104.641464 17.579376 -3.913581 -6.012627 17.808176 74.893669 106.179977
31 104.641464 17.579376 -3.913581 -6.012629 17.808178 74.893669 106.179977
[null_rope02_connect]
30 328.732849 0.000179 -0.000119 -134.517578 50.661018 12.195876 328.732849
31 328.732849 0.000179 -0.000119 -133.796066 49.955917 7.884460 328.732849
[Rope2_Seg01]
30 0.000064 0.000047 0.000000 -60.138813 24.711664 14.518674 0.000080
31 0.000065 0.000044 0.000000 -67.793213 31.907536 10.471756 0.000079
[Rope2_Seg02]
30 139.999741 -0.000060 -0.000119 -5.304456 5.357522 5.167690 139.999756
31 139.999741 -0.000060 -0.000119 -5.169525 5.445866 3.805762 139.999756
[Rope2_Seg03]
30 140.000107 0.000030 0.000000 -8.391886 5.270164 9.251661 140.000107
31 140.000107 0.000030 0.000000 -8.097251 6.420978 5.985762 140.000107
[Rope2_Seg04]
30 139.999802 0.000000 -0.000060 -12.626013 7.765318 14.618553 139.999802
31 139.999802 0.000000 -0.000060 -12.576153 6.901144 10.032778 139.999802
[Rope2_Seg05]
30 139.999985 -0.000060 0.000119 -18.674898 21.665733 9.390733 139.999985
31 139.999985 -0.000060 0.000119 -17.887445 12.230218 11.101976 139.999985
[Rope2_Seg06]
30 139.999893 -0.000030 -0.000119 -13.298582 7.481518 7.328322 139.999893
31 139.999893 -0.000030 -0.000119 -12.492197 5.551580 8.253702 139.999893
[Rope2_Seg07]
30 139.999893 0.000060 -0.000060 -7.636396 2.557761 4.770559 139.999893
31 139.999893 0.000060 -0.000060 -7.124822 1.641074 5.452150 139.999893
[Rope2_Seg09]
30 121.338966 0.000089 -0.000060 33.793236 -1.359788 -0.847141 121.338966
31 121.338966 0.000089 -0.000060 33.793236 -1.359788 -0.847141 121.338966
[R_mid_hand01]
30 104.680779 11.144459 -10.335981 -18.585411 44.487877 67.094765 105.778534
31 104.680779 11.144459 -10.335981 -16.857134 45.048359 69.553467 105.778534
[R_mid_hand02]
30 104.070427 2.443552 8.231699 52.755058 -65.811378 35.278732 104.424065
31 104.070427 2.443552 8.231699 50.118141 -67.241356 38.150043 104.424065
[R_mid_hand03]
30 106.028137 -11.221827 -5.996406 -176.406250 15.411086 -73.996979 106.788818
31 106.028137 -11.221827 -5.996406 -176.912491 15.518670 -75.892761 106.788818
[spine02]
30 129.756927 0.001550 0.000119 -0.243056 -4.052810 -4.420686 129.756927
31 129.756927 0.001550 0.000119 -0.193267 -4.055668 -5.125991 129.756927
[spine03]
30 78.613945 0.081576 -4.899014 1.533946 3.988957 11.182760 78.766487
31 78.613945 0.081569 -4.899014 1.564957 3.977269 11.620841 78.766487
[pelvis]
30 169.435242 0.051022 0.000000 -0.025741 -0.190571 3.384475 169.435257
31 169.435242 0.051022 0.000000 -0.029201 -0.190303 4.274585 169.435257
[null_rope03_connect]
30 -1.257226 -2.466202 137.391083 10.984715 -77.841934 60.602062 137.418976
31 -1.257226 -2.466202 137.391083 13.604137 -76.433426 59.467548 137.418976
[null_rope04_connect]
30 -1.259640 -2.480268 -137.844437 10.984715 -77.841934 60.602062 137.872513
31 -1.259640 -2.480268 -137.844437 13.604137 -76.433426 59.467548 137.872513
[Rope3_Seg01]
30 0.000024 -0.000433 0.000000 -143.102936 -21.411659 -40.995529 0.000434
31 0.000022 -0.000447 0.000000 -135.833679 -13.980083 -51.099163 0.000447
[Rope3_Seg02]
30 139.999924 -0.000119 0.000060 14.219747 -16.518715 2.283584 139.999924
31 139.999924 -0.000119 0.000060 7.543105 -16.239887 -16.542927 139.999924
[Rope3_Seg03]
30 139.999924 -0.000119 0.000119 2.581617 -1.206246 3.091419 139.999924
31 139.999924 -0.000119 0.000119 -9.327125 -2.651169 -13.414243 139.999924
[Rope3_Seg04]
30 139.999924 0.000119 0.000000 7.423149 -7.683351 2.607316 139.999924
31 139.999924 0.000119 0.000000 23.949663 -11.989853 -5.493224 139.999924
[Rope3_Seg05]
30 139.999924 -0.000238 0.000060 34.339336 -38.921425 16.190737 139.999924
31 139.999924 -0.000238 0.000060 72.882339 -45.752594 21.000639 139.999924
[Rope3_Seg06]
30 139.999893 -0.000119 -0.000060 12.534902 -18.505651 33.964115 139.999893
31 139.999893 -0.000119 -0.000060 7.157293 4.889735 27.478674 139.999893
[Rope3_Seg07]
30 139.999771 0.000060 -0.000119 2.241678 -2.555283 11.927459 139.999771
31 139.999771 0.000060 -0.000119 1.322990 2.309831 8.917171 139.999771
[Rope3_Seg08]
30 139.999985 -0.000060 0.000000 0.930892 -0.897566 5.253802 139.999985
31 139.999985 -0.000060 0.000000 0.712138 1.168635 4.149665 139.999985
[Rope3_Seg09]
30 90.185997 -0.000179 -0.000060 89.793228 -1.359877 -0.847183 90.185997
31 90.185997 -0.000179 -0.000060 89.793228 -1.359877 -0.847183 90.185997
[R_rear_hand01]
30 103.366196 -6.073594 -10.757982 -176.652328 24.449375 -71.361557 104.101845
31 103.366196 -6.073594 -10.757982 -177.431534 24.540596 -73.234848 104.101845
[R_rear_hand02]
30 100.509819 12.039542 -7.992327 -14.552642 36.319771 69.354713 101.543350
31 100.509819 12.039542 -7.992327 -13.326711 36.728542 71.413704 101.543350
[R_rear_hand03]
30 101.539970 5.215704 5.435467 73.490227 -69.598824 19.389961 101.819031
31 101.539970 5.215704 5.435467 72.062210 -71.230423 20.902836 101.819031
[Rope4_Seg01]
30 -0.000010 -0.000410 -0.000047 55.227104 -13.084015 -145.514694 0.000412
31 -0.000010 -0.000425 -0.000044 58.681141 -16.366707 -146.717560 0.000427
[Rope4_Seg02]
30 139.999985 0.000060 0.000119 -9.882662 3.293140 -9.151615 139.999985
31 139.999985 0.000060 0.000119 -9.747808 2.050742 -8.824487 139.999985
[Rope4_Seg03]
30 139.999924 0.000000 -0.000238 -13.283487 6.394593 -11.866655 139.999924
31 139.999924 0.000000 -0.000238 -14.449776 4.949836 -12.076988 139.999924
[Rope4_Seg04]
30 139.999985 0.000000 0.000119 -12.382160 5.767987 -12.089841 139.999985
31 139.999985 0.000000 0.000119 -13.869520 6.512155 -11.746132 139.999985
[Rope4_Seg05]
30 139.999802 -0.000060 -0.000119 -10.515502 17.403038 -8.489001 139.999802
31 139.999802 -0.000060 -0.000119 -14.573752 16.434256 -12.246248 139.999802
[Rope4_Seg06]
30 139.999924 0.000000 0.000060 -3.804847 44.424606 -3.326940 139.999924
31 139.999924 0.000000 0.000060 -12.623332 41.251167 -15.192057 139.999924
[Rope4_Seg07]
30 139.999802 0.000000 0.000000 5.281639 24.205709 -1.336060 139.999802
31 139.999802 0.000000 0.000000 2.531433 23.336580 -4.710341 139.999802
[Rope4_Seg08]
30 139.999924 0.000000 0.000119 2.459561 8.709012 -1.468105 139.999924
31 139.999924 0.000000 0.000119 1.168540 8.501452 -2.252566 139.999924
[Rope4_Seg09]
30 90.185791 0.000060 0.000060 -135.617828 2.228885 0.850567 90.185791
31 90.185791 0.000060 0.000060 -135.617828 2.228885 0.850567 90.185791
[L_rear_hand01]
30 101.696655 -8.392275 -7.654577 -12.874829 -36.868488 107.832764 102.329041
31 101.696655 -8.392275 -7.654577 -12.874829 -36.868488 107.832764 102.329041
[L_rear_hand02]
30 102.726799 -1.568258 5.773216 71.484581 71.816628 158.486160 102.900848
31 102.726799 -1.568258 5.773216 71.484596 71.816643 158.486160 102.900848
[L_rear_hand03]
30 104.552910 9.721220 -10.420293 -177.714203 -24.565966 -106.089035 105.519653
31 104.552910 9.721220 -10.420293 -177.714203 -24.565966 -106.089035 105.519653
